<?xml version="1.0" encoding="UTF-8" standalone="no"?>
<!-- Created with Inkscape (http://www.inkscape.org/) -->
<svg xmlns:dc="http://purl.org/dc/elements/1.1/" xmlns:cc="http://web.resource.org/cc/" xmlns:rdf="http://www.w3.org/1999/02/22-rdf-syntax-ns#" xmlns:svg="http://www.w3.org/2000/svg" xmlns="http://www.w3.org/2000/svg" xmlns:xlink="http://www.w3.org/1999/xlink" xmlns:sodipodi="http://sodipodi.sourceforge.net/DTD/sodipodi-0.dtd" xmlns:inkscape="http://www.inkscape.org/namespaces/inkscape" version="1.0" width="1200" height="420" viewBox="0 0 1200 420" onload="Start(evt)" id="svg2707" sodipodi:version="0.32" inkscape:version="0.45pre1" sodipodi:docname="clock2.svg" inkscape:output_extension="org.inkscape.output.svg.inkscape" sodipodi:modified="true" title="Animated Mechanical Gear Clock" desc="A clock with working gears, showing month, day, weekday, day/night, hour, minute, and second.">
  <metadata id="metadata2390">
    <rdf:RDF>
      <cc:Work rdf:about="">
        <dc:format>image/svg+xml</dc:format>
        <dc:type rdf:resource="http://purl.org/dc/dcmitype/StillImage"/>
        <cc:license rdf:resource="http://creativecommons.org/licenses/by-nc-nd/2.5/"/>
        <dc:title>Mechanical Clock</dc:title>
        <dc:date>7 January 2007</dc:date>
        <dc:creator>
          <cc:Agent>
            <dc:title>Tavmjong Bah</dc:title>
          </cc:Agent>
        </dc:creator>
        <dc:description>Mechanical Clock with Hour, Minute, and Second hands.</dc:description>
        <dc:contributor>
          <cc:Agent>
            <dc:title>Gears created with python script from Aaron Spike.</dc:title>
          </cc:Agent>
        </dc:contributor>
        <dc:subject>
          <rdf:Bag>
            <rdf:li>SVG</rdf:li>
            <rdf:li>Clock</rdf:li>
            <rdf:li>Animation</rdf:li>
          </rdf:Bag>
        </dc:subject>
      </cc:Work>
      <cc:License rdf:about="http://creativecommons.org/licenses/by-nc-nd/2.5/">
        <cc:permits rdf:resource="http://web.resource.org/cc/Reproduction"/>
        <cc:permits rdf:resource="http://web.resource.org/cc/Distribution"/>
        <cc:requires rdf:resource="http://web.resource.org/cc/Notice"/>
        <cc:requires rdf:resource="http://web.resource.org/cc/Attribution"/>
        <cc:prohibits rdf:resource="http://web.resource.org/cc/CommercialUse"/>
      </cc:License>
    </rdf:RDF>
  </metadata>
  <defs id="defs2806">
    <path style="fill:#bfbfbf;stroke:#000000" d="M -1.25,-105.03 L -2.5,-101.84 L -3.4062,-98.625 L -6.2812,-98.469 L -7.5,-101.59 L -9.0312,-104.66 L -11.531,-104.41 L -12.469,-101.09 L -13.031,-97.812 L -15.906,-97.375 L -17.406,-100.38 L -19.25,-103.25 L -21.719,-102.78 L -22.312,-99.375 L -22.562,-96.062 L -25.375,-95.344 L -27.156,-98.156 L -29.281,-100.88 L -31.688,-100.16 L -31.938,-96.719 L -31.875,-93.375 L -34.594,-92.406 L -36.656,-95.031 L -39.031,-97.531 L -41.344,-96.562 L -41.281,-93.125 L -40.875,-89.812 L -43.5,-88.562 L -45.812,-90.969 L -48.406,-93.219 L -50.625,-92.031 L -50.219,-88.625 L -49.469,-85.375 L -51.969,-83.875 L -54.5,-86.062 L -57.312,-88.031 L -59.406,-86.625 L -58.656,-83.281 L -57.625,-80.125 L -59.938,-78.375 L -62.656,-80.312 L -65.656,-82 L -67.594,-80.406 L -66.531,-77.125 L -65.188,-74.094 L -67.344,-72.125 L -70.25,-73.781 L -73.375,-75.156 L -75.156,-73.375 L -73.781,-70.25 L -72.125,-67.344 L -74.094,-65.188 L -77.125,-66.531 L -80.406,-67.594 L -82,-65.656 L -80.312,-62.656 L -78.375,-59.938 L -80.125,-57.625 L -83.281,-58.656 L -86.625,-59.406 L -88.031,-57.312 L -86.062,-54.5 L -83.875,-51.969 L -85.375,-49.469 L -88.625,-50.219 L -92.031,-50.625 L -93.219,-48.406 L -90.969,-45.812 L -88.562,-43.5 L -89.812,-40.875 L -93.125,-41.281 L -96.562,-41.344 L -97.531,-39.031 L -95.031,-36.656 L -92.406,-34.594 L -93.375,-31.875 L -96.719,-31.938 L -100.16,-31.688 L -100.88,-29.281 L -98.156,-27.156 L -95.344,-25.375 L -96.062,-22.562 L -99.375,-22.312 L -102.78,-21.719 L -103.25,-19.25 L -100.38,-17.406 L -97.375,-15.906 L -97.812,-13.031 L -101.09,-12.469 L -104.41,-11.531 L -104.66,-9.0312 L -101.59,-7.5 L -98.469,-6.2812 L -98.625,-3.4062 L -101.84,-2.5 L -105.03,-1.25 L -105.03,1.25 L -101.84,2.5 L -98.625,3.4062 L -98.469,6.2812 L -101.59,7.5 L -104.66,9.0312 L -104.41,11.531 L -101.09,12.469 L -97.812,13.031 L -97.375,15.906 L -100.38,17.406 L -103.25,19.25 L -102.78,21.719 L -99.375,22.312 L -96.062,22.562 L -95.344,25.375 L -98.156,27.156 L -100.88,29.281 L -100.16,31.688 L -96.719,31.938 L -93.375,31.875 L -92.406,34.594 L -95.031,36.656 L -97.531,39.031 L -96.562,41.344 L -93.125,41.281 L -89.812,40.875 L -88.562,43.5 L -90.969,45.812 L -93.219,48.406 L -92.031,50.625 L -88.625,50.219 L -85.375,49.469 L -83.875,51.969 L -86.062,54.5 L -88.031,57.312 L -86.625,59.406 L -83.281,58.656 L -80.125,57.625 L -78.375,59.938 L -80.312,62.656 L -82,65.656 L -80.406,67.594 L -77.125,66.531 L -74.094,65.188 L -72.125,67.344 L -73.781,70.25 L -75.156,73.375 L -73.375,75.156 L -70.25,73.781 L -67.344,72.125 L -65.188,74.094 L -66.531,77.125 L -67.594,80.406 L -65.656,82 L -62.656,80.312 L -59.938,78.375 L -57.625,80.125 L -58.656,83.281 L -59.406,86.625 L -57.312,88.031 L -54.5,86.062 L -51.969,83.875 L -49.469,85.375 L -50.219,88.625 L -50.625,92.031 L -48.406,93.219 L -45.812,90.969 L -43.5,88.562 L -40.875,89.812 L -41.281,93.125 L -41.344,96.562 L -39.031,97.531 L -36.656,95.031 L -34.594,92.406 L -31.875,93.375 L -31.938,96.719 L -31.688,100.16 L -29.281,100.88 L -27.156,98.156 L -25.375,95.344 L -22.562,96.062 L -22.312,99.375 L -21.719,102.78 L -19.25,103.25 L -17.406,100.38 L -15.906,97.375 L -13.031,97.812 L -12.469,101.09 L -11.531,104.41 L -9.0312,104.66 L -7.5,101.59 L -6.2812,98.469 L -3.4062,98.625 L -2.5,101.84 L -1.25,105.03 L 1.25,105.03 L 2.5,101.84 L 3.4062,98.625 L 6.2812,98.469 L 7.5,101.59 L 9.0312,104.66 L 11.531,104.41 L 12.469,101.09 L 13.031,97.812 L 15.906,97.375 L 17.406,100.38 L 19.25,103.25 L 21.719,102.78 L 22.312,99.375 L 22.562,96.062 L 25.375,95.344 L 27.156,98.156 L 29.281,100.88 L 31.688,100.16 L 31.938,96.719 L 31.875,93.375 L 34.594,92.406 L 36.656,95.031 L 39.031,97.531 L 41.344,96.562 L 41.281,93.125 L 40.875,89.812 L 43.5,88.562 L 45.812,90.969 L 48.406,93.219 L 50.625,92.031 L 50.219,88.625 L 49.469,85.375 L 51.969,83.875 L 54.5,86.062 L 57.312,88.031 L 59.406,86.625 L 58.656,83.281 L 57.625,80.125 L 59.938,78.375 L 62.656,80.312 L 65.656,82 L 67.594,80.406 L 66.531,77.125 L 65.188,74.094 L 67.344,72.125 L 70.25,73.781 L 73.375,75.156 L 75.156,73.375 L 73.781,70.25 L 72.125,67.344 L 74.094,65.188 L 77.125,66.531 L 80.406,67.594 L 82,65.656 L 80.312,62.656 L 78.375,59.938 L 80.125,57.625 L 83.281,58.656 L 86.625,59.406 L 88.031,57.312 L 86.062,54.5 L 83.875,51.969 L 85.375,49.469 L 88.625,50.219 L 92.031,50.625 L 93.219,48.406 L 90.969,45.812 L 88.562,43.5 L 89.812,40.875 L 93.125,41.281 L 96.562,41.344 L 97.531,39.031 L 95.031,36.656 L 92.406,34.594 L 93.375,31.875 L 96.719,31.938 L 100.16,31.688 L 100.88,29.281 L 98.156,27.156 L 95.344,25.375 L 96.062,22.562 L 99.375,22.312 L 102.78,21.719 L 103.25,19.25 L 100.38,17.406 L 97.375,15.906 L 97.812,13.031 L 101.09,12.469 L 104.41,11.531 L 104.66,9.0312 L 101.59,7.5 L 98.469,6.2812 L 98.625,3.4062 L 101.84,2.5 L 105.03,1.25 L 105.03,-1.25 L 101.84,-2.5 L 98.625,-3.4062 L 98.469,-6.2812 L 101.59,-7.5 L 104.66,-9.0312 L 104.41,-11.531 L 101.09,-12.469 L 97.812,-13.031 L 97.375,-15.906 L 100.38,-17.406 L 103.25,-19.25 L 102.78,-21.719 L 99.375,-22.312 L 96.062,-22.562 L 95.344,-25.375 L 98.156,-27.156 L 100.88,-29.281 L 100.16,-31.688 L 96.719,-31.938 L 93.375,-31.875 L 92.406,-34.594 L 95.031,-36.656 L 97.531,-39.031 L 96.562,-41.344 L 93.125,-41.281 L 89.812,-40.875 L 88.562,-43.5 L 90.969,-45.812 L 93.219,-48.406 L 92.031,-50.625 L 88.625,-50.219 L 85.375,-49.469 L 83.875,-51.969 L 86.062,-54.5 L 88.031,-57.312 L 86.625,-59.406 L 83.281,-58.656 L 80.125,-57.625 L 78.375,-59.938 L 80.312,-62.656 L 82,-65.656 L 80.406,-67.594 L 77.125,-66.531 L 74.094,-65.188 L 72.125,-67.344 L 73.781,-70.25 L 75.156,-73.375 L 73.375,-75.156 L 70.25,-73.781 L 67.344,-72.125 L 65.188,-74.094 L 66.531,-77.125 L 67.594,-80.406 L 65.656,-82 L 62.656,-80.312 L 59.938,-78.375 L 57.625,-80.125 L 58.656,-83.281 L 59.406,-86.625 L 57.312,-88.031 L 54.5,-86.062 L 51.969,-83.875 L 49.469,-85.375 L 50.219,-88.625 L 50.625,-92.031 L 48.406,-93.219 L 45.812,-90.969 L 43.5,-88.562 L 40.875,-89.812 L 41.281,-93.125 L 41.344,-96.562 L 39.031,-97.531 L 36.656,-95.031 L 34.594,-92.406 L 31.875,-93.375 L 31.938,-96.719 L 31.688,-100.16 L 29.281,-100.88 L 27.156,-98.156 L 25.375,-95.344 L 22.562,-96.062 L 22.312,-99.375 L 21.719,-102.78 L 19.25,-103.25 L 17.406,-100.38 L 15.906,-97.375 L 13.031,-97.812 L 12.469,-101.09 L 11.531,-104.41 L 9.0312,-104.66 L 7.5,-101.59 L 6.2812,-98.469 L 3.4062,-98.625 L 2.5,-101.84 L 1.25,-105.03 L -1.25,-105.03 z M 0,-85 C 19.855,-85 38.12,-78.172 52.594,-66.75 L 10.594,-24.75 C 4.7389,-18.895 -4.7389,-18.895 -10.594,-24.75 L -52.594,-66.75 C -38.12,-78.172 -19.855,-85 0,-85 z M -66.75,-52.594 L -24.75,-10.594 C -18.895,-4.7389 -18.895,4.7389 -24.75,10.594 L -66.75,52.594 C -78.172,38.12 -85,19.855 -85,0 C -85,-19.855 -78.172,-38.12 -66.75,-52.594 z M 66.75,-52.594 C 78.172,-38.12 85,-19.855 85,0 C 85,19.855 78.172,38.12 66.75,52.594 L 24.75,10.594 C 18.895,4.7389 18.895,-4.7389 24.75,-10.594 L 66.75,-52.594 z M 0,20.344 C 3.8396,20.344 7.6663,21.823 10.594,24.75 L 52.594,66.75 C 38.12,78.172 19.855,85 0,85 C -19.855,85 -38.12,78.172 -52.594,66.75 L -10.594,24.75 C -7.6663,21.823 -3.8396,20.344 0,20.344 z " id="Gear64"/>
    <path style="fill:#bfbfbf;stroke:#000000" d="M -1.2344,-98.672 L -2.4844,-95.453 L -3.3594,-92.234 L -6.2656,-92.078 L -7.4844,-95.172 L -9.0469,-98.234 L -11.547,-97.984 L -12.453,-94.672 L -12.984,-91.391 L -15.859,-90.922 L -17.391,-93.891 L -19.266,-96.766 L -21.734,-96.234 L -22.266,-92.828 L -22.453,-89.516 L -25.297,-88.766 L -27.109,-91.547 L -29.297,-94.203 L -31.672,-93.453 L -31.859,-90.016 L -31.703,-86.672 L -34.422,-85.641 L -36.547,-88.203 L -38.984,-90.641 L -41.266,-89.609 L -41.109,-86.172 L -40.578,-82.891 L -43.203,-81.578 L -45.547,-83.922 L -48.234,-86.078 L -50.391,-84.797 L -49.891,-81.422 L -49.047,-78.203 L -51.484,-76.609 L -54.078,-78.672 L -56.984,-80.547 L -58.984,-79.078 L -58.109,-75.734 L -56.953,-72.641 L -59.203,-70.797 L -62.016,-72.609 L -65.078,-74.141 L -66.953,-72.484 L -65.734,-69.266 L -64.234,-66.297 L -66.297,-64.234 L -69.266,-65.734 L -72.484,-66.953 L -74.141,-65.078 L -72.609,-62.016 L -70.797,-59.203 L -72.641,-56.953 L -75.734,-58.109 L -79.078,-58.984 L -80.547,-56.984 L -78.672,-54.078 L -76.609,-51.484 L -78.203,-49.047 L -81.422,-49.891 L -84.797,-50.391 L -86.078,-48.234 L -83.922,-45.547 L -81.578,-43.203 L -82.891,-40.578 L -86.172,-41.109 L -89.609,-41.266 L -90.641,-38.984 L -88.203,-36.547 L -85.641,-34.422 L -86.672,-31.703 L -90.016,-31.859 L -93.453,-31.672 L -94.203,-29.297 L -91.547,-27.109 L -88.766,-25.297 L -89.516,-22.453 L -92.828,-22.266 L -96.234,-21.734 L -96.766,-19.266 L -93.891,-17.391 L -90.922,-15.859 L -91.391,-12.984 L -94.672,-12.453 L -97.984,-11.547 L -98.234,-9.0469 L -95.172,-7.4844 L -92.078,-6.2656 L -92.234,-3.3594 L -95.453,-2.4844 L -98.672,-1.2344 L -98.672,1.2656 L -95.453,2.5156 L -92.234,3.3906 L -92.078,6.2969 L -95.172,7.5156 L -98.234,9.0781 L -97.984,11.578 L -94.672,12.484 L -91.391,13.016 L -90.922,15.891 L -93.891,17.422 L -96.766,19.297 L -96.234,21.734 L -92.828,22.297 L -89.516,22.484 L -88.766,25.297 L -91.547,27.141 L -94.203,29.328 L -93.453,31.703 L -90.016,31.891 L -86.672,31.734 L -85.641,34.453 L -88.203,36.547 L -90.641,39.016 L -89.609,41.297 L -86.172,41.109 L -82.891,40.609 L -81.578,43.203 L -83.922,45.578 L -86.078,48.266 L -84.797,50.422 L -81.422,49.922 L -78.203,49.047 L -76.609,51.516 L -78.672,54.109 L -80.547,56.984 L -79.078,59.016 L -75.734,58.141 L -72.641,56.953 L -70.797,59.234 L -72.609,62.016 L -74.141,65.109 L -72.484,66.953 L -69.266,65.734 L -66.297,64.234 L -64.234,66.297 L -65.734,69.266 L -66.953,72.484 L -65.078,74.172 L -62.016,72.641 L -59.203,70.828 L -56.953,72.672 L -58.109,75.766 L -58.984,79.109 L -56.984,80.578 L -54.078,78.703 L -51.484,76.641 L -49.047,78.203 L -49.891,81.422 L -50.391,84.828 L -48.234,86.078 L -45.547,83.922 L -43.203,81.578 L -40.578,82.922 L -41.109,86.203 L -41.266,89.641 L -38.984,90.672 L -36.547,88.234 L -34.422,85.672 L -31.703,86.703 L -31.859,90.016 L -31.672,93.453 L -29.297,94.234 L -27.109,91.578 L -25.297,88.797 L -22.453,89.547 L -22.266,92.859 L -21.734,96.266 L -19.266,96.797 L -17.391,93.891 L -15.859,90.953 L -12.984,91.391 L -12.453,94.703 L -11.547,98.016 L -9.0469,98.266 L -7.4844,95.203 L -6.2656,92.109 L -3.3594,92.266 L -2.4844,95.484 L -1.2344,98.672 L 1.2656,98.672 L 2.5156,95.484 L 3.3906,92.266 L 6.2969,92.109 L 7.5156,95.203 L 9.0781,98.266 L 11.578,98.016 L 12.484,94.703 L 13.016,91.391 L 15.891,90.953 L 17.422,93.891 L 19.297,96.797 L 21.734,96.266 L 22.297,92.859 L 22.484,89.547 L 25.297,88.797 L 27.141,91.578 L 29.297,94.234 L 31.703,93.453 L 31.891,90.016 L 31.734,86.703 L 34.453,85.672 L 36.547,88.234 L 39.016,90.672 L 41.297,89.641 L 41.109,86.203 L 40.609,82.922 L 43.203,81.578 L 45.578,83.922 L 48.266,86.078 L 50.422,84.828 L 49.922,81.422 L 49.047,78.203 L 51.516,76.641 L 54.109,78.703 L 56.984,80.578 L 59.016,79.109 L 58.141,75.766 L 56.953,72.672 L 59.234,70.828 L 62.016,72.641 L 65.109,74.172 L 66.953,72.484 L 65.734,69.266 L 64.234,66.297 L 66.297,64.234 L 69.266,65.734 L 72.484,66.953 L 74.172,65.109 L 72.609,62.016 L 70.828,59.234 L 72.672,56.953 L 75.766,58.141 L 79.109,59.016 L 80.578,56.984 L 78.703,54.109 L 76.609,51.516 L 78.203,49.047 L 81.422,49.922 L 84.828,50.422 L 86.078,48.266 L 83.922,45.578 L 81.578,43.203 L 82.922,40.609 L 86.203,41.109 L 89.641,41.297 L 90.672,39.016 L 88.234,36.547 L 85.672,34.453 L 86.703,31.734 L 90.016,31.891 L 93.453,31.703 L 94.234,29.328 L 91.578,27.141 L 88.797,25.297 L 89.547,22.484 L 92.859,22.297 L 96.266,21.734 L 96.797,19.297 L 93.891,17.422 L 90.953,15.891 L 91.391,13.016 L 94.703,12.484 L 98.016,11.578 L 98.266,9.0781 L 95.203,7.5156 L 92.109,6.2969 L 92.266,3.3906 L 95.484,2.5156 L 98.672,1.2656 L 98.672,-1.2344 L 95.484,-2.4844 L 92.266,-3.3594 L 92.109,-6.2656 L 95.203,-7.4844 L 98.266,-9.0469 L 98.016,-11.547 L 94.703,-12.453 L 91.391,-12.984 L 90.953,-15.859 L 93.891,-17.391 L 96.797,-19.266 L 96.266,-21.734 L 92.859,-22.266 L 89.547,-22.453 L 88.797,-25.297 L 91.578,-27.109 L 94.234,-29.297 L 93.453,-31.672 L 90.016,-31.859 L 86.703,-31.703 L 85.672,-34.422 L 88.234,-36.547 L 90.672,-38.984 L 89.641,-41.266 L 86.203,-41.109 L 82.922,-40.578 L 81.578,-43.203 L 83.922,-45.547 L 86.078,-48.234 L 84.828,-50.391 L 81.422,-49.891 L 78.203,-49.047 L 76.609,-51.484 L 78.703,-54.078 L 80.578,-56.984 L 79.109,-58.984 L 75.766,-58.109 L 72.672,-56.953 L 70.828,-59.203 L 72.609,-62.016 L 74.172,-65.078 L 72.484,-66.953 L 69.266,-65.734 L 66.297,-64.234 L 64.234,-66.297 L 65.734,-69.266 L 66.953,-72.484 L 65.109,-74.141 L 62.016,-72.609 L 59.234,-70.797 L 56.953,-72.641 L 58.141,-75.734 L 59.016,-79.078 L 56.984,-80.547 L 54.109,-78.672 L 51.516,-76.609 L 49.047,-78.203 L 49.922,-81.422 L 50.422,-84.797 L 48.266,-86.078 L 45.578,-83.922 L 43.203,-81.578 L 40.609,-82.891 L 41.109,-86.172 L 41.297,-89.609 L 39.016,-90.641 L 36.547,-88.203 L 34.453,-85.641 L 31.734,-86.672 L 31.891,-90.016 L 31.703,-93.453 L 29.297,-94.203 L 27.141,-91.547 L 25.297,-88.766 L 22.484,-89.516 L 22.297,-92.828 L 21.734,-96.234 L 19.297,-96.766 L 17.422,-93.891 L 15.891,-90.922 L 13.016,-91.391 L 12.484,-94.672 L 11.578,-97.984 L 9.0781,-98.234 L 7.5156,-95.172 L 6.2969,-92.078 L 3.3906,-92.234 L 2.5156,-95.453 L 1.2656,-98.672 L -1.2344,-98.672 z M -9.9844,-79.109 L -9.9844,-24.984 C -9.9844,-16.704 -16.704,-9.9844 -24.984,-9.9844 L -79.453,-9.9844 C -74.832,-46.081 -46.132,-74.654 -9.9844,-79.109 z M 10.016,-79.078 C 46.046,-74.522 74.624,-45.997 79.234,-9.9844 L 25.016,-9.9844 C 16.736,-9.9844 10.016,-16.704 10.016,-24.984 L 10.016,-79.078 z M -79.516,10.016 L -24.984,10.016 C -16.704,10.016 -9.9844,16.736 -9.9844,25.016 L -9.9844,79.641 C -46.299,75.165 -75.097,46.348 -79.516,10.016 z M 25.016,10.016 L 79.297,10.016 C 74.888,46.264 46.212,75.032 10.016,79.609 L 10.016,25.016 C 10.016,16.736 16.736,10.016 25.016,10.016 z " id="Gear60"/>
    <path style="fill:#bfbfbf;stroke:#000000" d="M -1.1875,-54.094 L -2.5,-50.875 L -3.0625,-47.75 L -3.0625,-47.656 L -6.3125,-47.344 L -6.3125,-47.438 L -7.4688,-50.375 L -9.4062,-53.281 L -11.719,-52.844 L -12.375,-49.406 L -12.312,-46.25 L -12.281,-46.125 L -15.406,-45.188 L -15.438,-45.281 L -17.156,-47.938 L -19.625,-50.438 L -21.781,-49.531 L -21.781,-46.031 L -21.094,-42.969 L -21.062,-42.844 L -23.938,-41.312 L -24,-41.406 L -26.188,-43.688 L -29.062,-45.625 L -31.031,-44.312 L -30.344,-40.906 L -29.094,-38 L -29,-37.938 L -31.531,-35.844 L -31.594,-35.938 L -34.188,-37.75 L -37.406,-39.094 L -39.094,-37.406 L -37.75,-34.188 L -35.938,-31.594 L -35.844,-31.531 L -37.938,-29 L -38,-29.094 L -40.906,-30.344 L -44.312,-31.031 L -45.625,-29.062 L -43.688,-26.188 L -41.406,-24 L -41.312,-23.938 L -42.844,-21.062 L -42.969,-21.094 L -46.031,-21.781 L -49.531,-21.781 L -50.438,-19.625 L -47.938,-17.156 L -45.281,-15.438 L -45.188,-15.406 L -46.125,-12.281 L -46.25,-12.312 L -49.406,-12.375 L -52.844,-11.719 L -53.281,-9.4062 L -50.375,-7.4688 L -47.438,-6.3125 L -47.344,-6.3125 L -47.656,-3.0625 L -47.75,-3.0625 L -50.875,-2.5 L -54.094,-1.1875 L -54.094,1.1875 L -50.875,2.5 L -47.75,3.0625 L -47.656,3.0625 L -47.344,6.3125 L -47.438,6.3125 L -50.375,7.4688 L -53.281,9.4062 L -52.844,11.719 L -49.406,12.375 L -46.25,12.312 L -46.125,12.281 L -45.188,15.406 L -45.281,15.438 L -47.938,17.156 L -50.438,19.625 L -49.531,21.781 L -46.031,21.781 L -42.969,21.094 L -42.844,21.062 L -41.312,23.938 L -41.406,24 L -43.688,26.188 L -45.625,29.062 L -44.312,31.031 L -40.906,30.344 L -38,29.094 L -37.938,29 L -35.844,31.531 L -35.938,31.594 L -37.75,34.188 L -39.094,37.406 L -37.406,39.094 L -34.188,37.75 L -31.594,35.938 L -31.531,35.844 L -29,37.938 L -29.094,38 L -30.344,40.906 L -31.031,44.312 L -29.062,45.625 L -26.188,43.688 L -24,41.406 L -23.938,41.312 L -21.062,42.844 L -21.094,42.969 L -21.781,46.031 L -21.781,49.531 L -19.625,50.438 L -17.156,47.938 L -15.438,45.281 L -15.406,45.188 L -12.281,46.125 L -12.312,46.25 L -12.375,49.406 L -11.719,52.844 L -9.4062,53.281 L -7.4688,50.375 L -6.3125,47.438 L -6.3125,47.344 L -3.0625,47.656 L -3.0625,47.75 L -2.5,50.875 L -1.1875,54.094 L 1.1875,54.094 L 2.5,50.875 L 3.0625,47.75 L 3.0625,47.656 L 6.3125,47.344 L 6.3125,47.438 L 7.4688,50.375 L 9.4062,53.281 L 11.719,52.844 L 12.375,49.406 L 12.312,46.25 L 12.281,46.125 L 15.406,45.188 L 15.438,45.281 L 17.156,47.938 L 19.625,50.438 L 21.781,49.531 L 21.781,46.031 L 21.094,42.969 L 21.062,42.844 L 23.938,41.312 L 24,41.406 L 26.188,43.688 L 29.062,45.625 L 31.031,44.312 L 30.344,40.906 L 29.094,38 L 29,37.938 L 31.531,35.844 L 31.594,35.938 L 34.188,37.75 L 37.406,39.094 L 39.094,37.406 L 37.75,34.188 L 35.938,31.594 L 35.844,31.531 L 37.938,29 L 38,29.094 L 40.906,30.344 L 44.312,31.031 L 45.625,29.062 L 43.688,26.188 L 41.406,24 L 41.312,23.938 L 42.844,21.062 L 42.969,21.094 L 46.031,21.781 L 49.531,21.781 L 50.438,19.625 L 47.938,17.156 L 45.281,15.438 L 45.188,15.406 L 46.125,12.281 L 46.25,12.312 L 49.406,12.375 L 52.844,11.719 L 53.281,9.4062 L 50.375,7.4688 L 47.438,6.3125 L 47.344,6.3125 L 47.656,3.0625 L 47.75,3.0625 L 50.875,2.5 L 54.094,1.1875 L 54.094,-1.1875 L 50.875,-2.5 L 47.75,-3.0625 L 47.656,-3.0625 L 47.344,-6.3125 L 47.438,-6.3125 L 50.375,-7.4688 L 53.281,-9.4062 L 52.844,-11.719 L 49.406,-12.375 L 46.25,-12.312 L 46.125,-12.281 L 45.188,-15.406 L 45.281,-15.438 L 47.938,-17.156 L 50.438,-19.625 L 49.531,-21.781 L 46.031,-21.781 L 42.969,-21.094 L 42.844,-21.062 L 41.312,-23.938 L 41.406,-24 L 43.688,-26.188 L 45.625,-29.062 L 44.312,-31.031 L 40.906,-30.344 L 38,-29.094 L 37.938,-29 L 35.844,-31.531 L 35.938,-31.594 L 37.75,-34.188 L 39.094,-37.406 L 37.406,-39.094 L 34.188,-37.75 L 31.594,-35.938 L 31.531,-35.844 L 29,-37.938 L 29.094,-38 L 30.344,-40.906 L 31.031,-44.312 L 29.062,-45.625 L 26.188,-43.688 L 24,-41.406 L 23.938,-41.312 L 21.062,-42.844 L 21.094,-42.969 L 21.781,-46.031 L 21.781,-49.531 L 19.625,-50.438 L 17.156,-47.938 L 15.438,-45.281 L 15.406,-45.188 L 12.281,-46.125 L 12.312,-46.25 L 12.375,-49.406 L 11.719,-52.844 L 9.4062,-53.281 L 7.4688,-50.375 L 6.3125,-47.438 L 6.3125,-47.344 L 3.0625,-47.656 L 3.0625,-47.75 L 2.5,-50.875 L 1.1875,-54.094 L -1.1875,-54.094 z M 1.7764e-15,-40 C 5.52,-40 10,-35.52 10,-30 C 10,-24.48 5.52,-20 1.7764e-15,-20 C -5.52,-20 -10,-24.48 -10,-30 C -10,-35.52 -5.52,-40 1.7764e-15,-40 z M -25.719,-25 C -24.107,-24.958 -22.463,-24.519 -20.969,-23.656 C -16.188,-20.896 -14.553,-14.78 -17.312,-10 C -20.073,-5.2195 -26.188,-3.5838 -30.969,-6.3438 C -35.749,-9.1037 -37.416,-15.22 -34.656,-20 C -32.759,-23.287 -29.265,-25.091 -25.719,-25 z M 25.719,-25 C 29.265,-25.091 32.759,-23.287 34.656,-20 C 37.416,-15.22 35.749,-9.1037 30.969,-6.3438 C 26.188,-3.5837 20.073,-5.2195 17.312,-10 C 14.553,-14.78 16.188,-20.896 20.969,-23.656 C 22.463,-24.519 24.107,-24.958 25.719,-25 z M -26.25,5 C -22.703,4.9085 -19.21,6.7134 -17.312,10 C -14.553,14.78 -16.188,20.896 -20.969,23.656 C -25.749,26.416 -31.896,24.78 -34.656,20 C -37.416,15.22 -35.749,9.1037 -30.969,6.3438 C -29.475,5.4813 -27.862,5.0416 -26.25,5 z M 26.25,5 C 27.862,5.0416 29.475,5.4813 30.969,6.3438 C 35.749,9.1037 37.416,15.22 34.656,20 C 31.896,24.78 25.749,26.416 20.969,23.656 C 16.188,20.896 14.553,14.78 17.312,10 C 19.21,6.7134 22.703,4.9085 26.25,5 z M 1.7764e-15,20 C 5.52,20 10,24.48 10,30 C 10,35.52 5.52,40 1.7764e-15,40 C -5.52,40 -10,35.52 -10,30 C -10,24.48 -5.52,20 1.7764e-15,20 z " id="Gear32"/>
    <path style="fill:#bfbfbf;stroke:#000000" d="M 34.901,-2.8105 L 35.778,-2.8811 L 38.115,-2.4982 L 41.365,-1.1387 L 41.365,1.1387 L 38.115,2.4982 L 35.778,2.8811 L 34.901,2.8105 L 34.439,6.3183 L 35.304,6.477 L 37.463,7.4519 L 40.25,9.6061 L 39.66,11.806 L 36.17,12.278 L 33.813,12.043 L 32.984,11.748 L 31.63,15.017 L 32.425,15.394 L 34.258,16.894 L 36.392,19.696 L 35.253,21.668 L 31.76,21.221 L 29.544,20.384 L 28.82,19.885 L 26.666,22.691 L 27.336,23.261 L 28.718,25.185 L 30.054,28.444 L 28.444,30.054 L 25.185,28.718 L 23.261,27.336 L 22.691,26.666 L 19.885,28.82 L 20.384,29.544 L 21.221,31.76 L 21.668,35.253 L 19.696,36.392 L 16.894,34.258 L 15.394,32.425 L 15.017,31.63 L 11.748,32.984 L 12.043,33.813 L 12.278,36.17 L 11.806,39.66 L 9.6061,40.25 L 7.4519,37.463 L 6.477,35.304 L 6.3183,34.439 L 2.8105,34.901 L 2.8811,35.778 L 2.4982,38.115 L 1.1387,41.365 L -1.1387,41.365 L -2.4982,38.115 L -2.8811,35.778 L -2.8105,34.901 L -6.3183,34.439 L -6.477,35.304 L -7.4519,37.463 L -9.6061,40.25 L -11.806,39.66 L -12.278,36.17 L -12.043,33.813 L -11.748,32.984 L -15.017,31.63 L -15.394,32.425 L -16.894,34.258 L -19.696,36.392 L -21.668,35.253 L -21.221,31.76 L -20.384,29.544 L -19.885,28.82 L -22.691,26.666 L -23.261,27.336 L -25.185,28.718 L -28.444,30.054 L -30.054,28.444 L -28.718,25.185 L -27.336,23.261 L -26.666,22.691 L -28.82,19.885 L -29.544,20.384 L -31.76,21.221 L -35.253,21.668 L -36.392,19.696 L -34.258,16.894 L -32.425,15.394 L -31.63,15.017 L -32.984,11.748 L -33.813,12.043 L -36.17,12.278 L -39.66,11.806 L -40.25,9.6061 L -37.463,7.4519 L -35.304,6.477 L -34.439,6.3183 L -34.901,2.8105 L -35.778,2.8811 L -38.115,2.4982 L -41.365,1.1387 L -41.365,-1.1387 L -38.115,-2.4982 L -35.778,-2.8811 L -34.901,-2.8105 L -34.439,-6.3183 L -35.304,-6.477 L -37.463,-7.4519 L -40.25,-9.6061 L -39.66,-11.806 L -36.17,-12.278 L -33.813,-12.043 L -32.984,-11.748 L -31.63,-15.017 L -32.425,-15.394 L -34.258,-16.894 L -36.392,-19.696 L -35.253,-21.668 L -31.76,-21.221 L -29.544,-20.384 L -28.82,-19.885 L -26.666,-22.691 L -27.336,-23.261 L -28.718,-25.185 L -30.054,-28.444 L -28.444,-30.054 L -25.185,-28.718 L -23.261,-27.336 L -22.691,-26.666 L -19.885,-28.82 L -20.384,-29.544 L -21.221,-31.76 L -21.668,-35.253 L -19.696,-36.392 L -16.894,-34.258 L -15.394,-32.425 L -15.017,-31.63 L -11.748,-32.984 L -12.043,-33.813 L -12.278,-36.17 L -11.806,-39.66 L -9.6061,-40.25 L -7.4519,-37.463 L -6.477,-35.304 L -6.3183,-34.439 L -2.8105,-34.901 L -2.8811,-35.778 L -2.4982,-38.115 L -1.1387,-41.365 L 1.1387,-41.365 L 2.4982,-38.115 L 2.8811,-35.778 L 2.8105,-34.901 L 6.3183,-34.439 L 6.477,-35.304 L 7.4519,-37.463 L 9.6061,-40.25 L 11.806,-39.66 L 12.278,-36.17 L 12.043,-33.813 L 11.748,-32.984 L 15.017,-31.63 L 15.394,-32.425 L 16.894,-34.258 L 19.696,-36.392 L 21.668,-35.253 L 21.221,-31.76 L 20.384,-29.544 L 19.885,-28.82 L 22.691,-26.666 L 23.261,-27.336 L 25.185,-28.718 L 28.444,-30.054 L 30.054,-28.444 L 28.718,-25.185 L 27.336,-23.261 L 26.666,-22.691 L 28.82,-19.885 L 29.544,-20.384 L 31.76,-21.221 L 35.253,-21.668 L 36.392,-19.696 L 34.258,-16.894 L 32.425,-15.394 L 31.63,-15.017 L 32.984,-11.748 L 33.813,-12.043 L 36.17,-12.278 L 39.66,-11.806 L 40.25,-9.6061 L 37.463,-7.4519 L 35.304,-6.477 L 34.439,-6.3183 L 34.901,-2.8105 z " id="Gear24"/>
    <path d="M 28.523,-2.6731 L 29.781,-2.791 L 31.733,-2.4974 L 34.997,-1.1058 L 34.997,1.1058 L 31.733,2.4974 L 29.781,2.791 L 28.523,2.6731 L 27.953,6.2718 L 29.186,6.5484 L 30.951,7.4308 L 33.625,9.7629 L 32.942,11.866 L 29.408,12.181 L 27.461,11.857 L 26.301,11.356 L 24.647,14.603 L 25.734,15.247 L 27.14,16.632 L 28.963,19.676 L 27.663,21.465 L 24.204,20.673 L 22.453,19.763 L 21.504,18.928 L 18.928,21.504 L 19.763,22.453 L 20.673,24.204 L 21.465,27.663 L 19.676,28.963 L 16.632,27.14 L 15.247,25.734 L 14.603,24.647 L 11.356,26.301 L 11.857,27.461 L 12.181,29.408 L 11.866,32.942 L 9.7629,33.625 L 7.4308,30.951 L 6.5484,29.186 L 6.2718,27.953 L 2.6731,28.523 L 2.791,29.781 L 2.4974,31.733 L 1.1058,34.997 L -1.1058,34.997 L -2.4974,31.733 L -2.791,29.781 L -2.6731,28.523 L -6.2718,27.953 L -6.5484,29.186 L -7.4308,30.951 L -9.7629,33.625 L -11.866,32.942 L -12.181,29.408 L -11.857,27.461 L -11.356,26.301 L -14.603,24.647 L -15.247,25.734 L -16.632,27.14 L -19.676,28.963 L -21.465,27.663 L -20.673,24.204 L -19.763,22.453 L -18.928,21.504 L -21.504,18.928 L -22.453,19.763 L -24.204,20.673 L -27.663,21.465 L -28.963,19.676 L -27.14,16.632 L -25.734,15.247 L -24.647,14.603 L -26.301,11.356 L -27.461,11.857 L -29.408,12.181 L -32.942,11.866 L -33.625,9.7629 L -30.951,7.4308 L -29.186,6.5484 L -27.953,6.2718 L -28.523,2.6731 L -29.781,2.791 L -31.733,2.4974 L -34.997,1.1058 L -34.997,-1.1058 L -31.733,-2.4974 L -29.781,-2.791 L -28.523,-2.6731 L -27.953,-6.2718 L -29.186,-6.5484 L -30.951,-7.4308 L -33.625,-9.7629 L -32.942,-11.866 L -29.408,-12.181 L -27.461,-11.857 L -26.301,-11.356 L -24.647,-14.603 L -25.734,-15.247 L -27.14,-16.632 L -28.963,-19.676 L -27.663,-21.465 L -24.204,-20.673 L -22.453,-19.763 L -21.504,-18.928 L -18.928,-21.504 L -19.763,-22.453 L -20.673,-24.204 L -21.465,-27.663 L -19.676,-28.963 L -16.632,-27.14 L -15.247,-25.734 L -14.603,-24.647 L -11.356,-26.301 L -11.857,-27.461 L -12.181,-29.408 L -11.866,-32.942 L -9.7629,-33.625 L -7.4308,-30.951 L -6.5484,-29.186 L -6.2718,-27.953 L -2.6731,-28.523 L -2.791,-29.781 L -2.4974,-31.733 L -1.1058,-34.997 L 1.1058,-34.997 L 2.4974,-31.733 L 2.791,-29.781 L 2.6731,-28.523 L 6.2718,-27.953 L 6.5484,-29.186 L 7.4308,-30.951 L 9.7629,-33.625 L 11.866,-32.942 L 12.181,-29.408 L 11.857,-27.461 L 11.356,-26.301 L 14.603,-24.647 L 15.247,-25.734 L 16.632,-27.14 L 19.676,-28.963 L 21.465,-27.663 L 20.673,-24.204 L 19.763,-22.453 L 18.928,-21.504 L 21.504,-18.928 L 22.453,-19.763 L 24.204,-20.673 L 27.663,-21.465 L 28.963,-19.676 L 27.14,-16.632 L 25.734,-15.247 L 24.647,-14.603 L 26.301,-11.356 L 27.461,-11.857 L 29.408,-12.181 L 32.942,-11.866 L 33.625,-9.7629 L 30.951,-7.4308 L 29.186,-6.5484 L 27.953,-6.2718 L 28.523,-2.6731 z " style="fill:#bfbfbf;fill-opacity:1;stroke:#000000" id="Gear20"/>
    <path style="fill:#bfbfbf;stroke:#000000" d="M 22.139,-2.5142 L 23.776,-2.7001 L 25.342,-2.496 L 28.628,-1.0593 L 28.628,1.0593 L 25.342,2.496 L 23.776,2.7001 L 22.139,2.5142 L 21.416,6.1495 L 23,6.6042 L 24.368,7.392 L 26.854,9.977 L 26.044,11.934 L 22.458,12.004 L 20.933,11.593 L 19.492,10.795 L 17.433,13.877 L 18.722,14.903 L 19.685,16.155 L 20.992,19.494 L 19.494,20.992 L 16.155,19.685 L 14.903,18.722 L 13.877,17.433 L 10.795,19.492 L 11.593,20.933 L 12.004,22.458 L 11.934,26.044 L 9.977,26.854 L 7.392,24.368 L 6.6042,23 L 6.1495,21.416 L 2.5142,22.139 L 2.7001,23.776 L 2.496,25.342 L 1.0593,28.628 L -1.0593,28.628 L -2.496,25.342 L -2.7001,23.776 L -2.5142,22.139 L -6.1495,21.416 L -6.6042,23 L -7.392,24.368 L -9.977,26.854 L -11.934,26.044 L -12.004,22.458 L -11.593,20.933 L -10.795,19.492 L -13.877,17.433 L -14.903,18.722 L -16.155,19.685 L -19.494,20.992 L -20.992,19.494 L -19.685,16.155 L -18.722,14.903 L -17.433,13.877 L -19.492,10.795 L -20.933,11.593 L -22.458,12.004 L -26.044,11.934 L -26.854,9.977 L -24.368,7.392 L -23,6.6042 L -21.416,6.1495 L -22.139,2.5142 L -23.776,2.7001 L -25.342,2.496 L -28.628,1.0593 L -28.628,-1.0593 L -25.342,-2.496 L -23.776,-2.7001 L -22.139,-2.5142 L -21.416,-6.1495 L -23,-6.6042 L -24.368,-7.392 L -26.854,-9.977 L -26.044,-11.934 L -22.458,-12.004 L -20.933,-11.593 L -19.492,-10.795 L -17.433,-13.877 L -18.722,-14.903 L -19.685,-16.155 L -20.992,-19.494 L -19.494,-20.992 L -16.155,-19.685 L -14.903,-18.722 L -13.877,-17.433 L -10.795,-19.492 L -11.593,-20.933 L -12.004,-22.458 L -11.934,-26.044 L -9.977,-26.854 L -7.392,-24.368 L -6.6042,-23 L -6.1495,-21.416 L -2.5142,-22.139 L -2.7001,-23.776 L -2.496,-25.342 L -1.0593,-28.628 L 1.0593,-28.628 L 2.496,-25.342 L 2.7001,-23.776 L 2.5142,-22.139 L 6.1495,-21.416 L 6.6042,-23 L 7.392,-24.368 L 9.977,-26.854 L 11.934,-26.044 L 12.004,-22.458 L 11.593,-20.933 L 10.795,-19.492 L 13.877,-17.433 L 14.903,-18.722 L 16.155,-19.685 L 19.494,-20.992 L 20.992,-19.494 L 19.685,-16.155 L 18.722,-14.903 L 17.433,-13.877 L 19.492,-10.795 L 20.933,-11.593 L 22.458,-12.004 L 26.044,-11.934 L 26.854,-9.977 L 24.368,-7.392 L 23,-6.6042 L 21.416,-6.1495 L 22.139,-2.5142 z " id="Gear16"/>
    <path style="fill:#bfbfbf;stroke:#000000" d="M 18.945,-2.421 L 20.769,-2.6541 L 22.142,-2.4948 L 25.444,-1.0278 L 25.444,1.0278 L 22.142,2.4948 L 20.769,2.6541 L 18.945,2.421 L 18.119,6.0385 L 19.864,6.6201 L 21.031,7.3592 L 23.37,10.114 L 22.478,11.966 L 18.866,11.855 L 17.561,11.403 L 16.018,10.401 L 13.705,13.302 L 15.024,14.583 L 15.756,15.756 L 16.668,19.252 L 15.061,20.534 L 11.855,18.866 L 10.874,17.893 L 9.9189,16.321 L 6.5758,17.931 L 7.2091,19.658 L 7.3592,21.031 L 6.6639,24.577 L 4.6598,25.035 L 2.4948,22.142 L 2.034,20.839 L 1.8553,19.008 L -1.8553,19.008 L -2.034,20.839 L -2.4948,22.142 L -4.6598,25.035 L -6.6639,24.577 L -7.3592,21.031 L -7.2091,19.658 L -6.5758,17.931 L -9.9189,16.321 L -10.874,17.893 L -11.855,18.866 L -15.061,20.534 L -16.668,19.252 L -15.756,15.756 L -15.024,14.583 L -13.705,13.302 L -16.018,10.401 L -17.561,11.403 L -18.866,11.855 L -22.478,11.966 L -23.37,10.114 L -21.031,7.3592 L -19.864,6.6201 L -18.119,6.0385 L -18.945,2.421 L -20.769,2.6541 L -22.142,2.4948 L -25.444,1.0278 L -25.444,-1.0278 L -22.142,-2.4948 L -20.769,-2.6541 L -18.945,-2.421 L -18.119,-6.0385 L -19.864,-6.6201 L -21.031,-7.3592 L -23.37,-10.114 L -22.478,-11.966 L -18.866,-11.855 L -17.561,-11.403 L -16.018,-10.401 L -13.705,-13.302 L -15.024,-14.583 L -15.756,-15.756 L -16.668,-19.252 L -15.061,-20.534 L -11.855,-18.866 L -10.874,-17.893 L -9.9189,-16.321 L -6.5758,-17.931 L -7.2091,-19.658 L -7.3592,-21.031 L -6.6639,-24.577 L -4.6598,-25.035 L -2.4948,-22.142 L -2.034,-20.839 L -1.8553,-19.008 L 1.8553,-19.008 L 2.034,-20.839 L 2.4948,-22.142 L 4.6598,-25.035 L 6.6639,-24.577 L 7.3592,-21.031 L 7.2091,-19.658 L 6.5758,-17.931 L 9.9189,-16.321 L 10.874,-17.893 L 11.855,-18.866 L 15.061,-20.534 L 16.668,-19.252 L 15.756,-15.756 L 15.024,-14.583 L 13.705,-13.302 L 16.018,-10.401 L 17.561,-11.403 L 18.866,-11.855 L 22.478,-11.966 L 23.37,-10.114 L 21.031,-7.3592 L 19.864,-6.6201 L 18.119,-6.0385 L 18.945,-2.421 z " id="Gear14"/>
    <path style="fill:#bfbfbf;stroke:#000000" id="Gear8" d="M 9.337,-2.0024 L 11.699,-2.5088 L 12.488,-2.484 L 15.892,-0.86102 L 15.892,0.86102 L 12.488,2.484 L 11.699,2.5088 L 9.337,2.0024 L 8.0181,5.1864 L 10.046,6.4981 L 10.587,7.0737 L 11.846,10.629 L 10.629,11.846 L 7.0737,10.587 L 6.4981,10.046 L 5.1864,8.0181 L 2.0024,9.337 L 2.5088,11.699 L 2.484,12.488 L 0.86102,15.892 L -0.86102,15.892 L -2.484,12.488 L -2.5088,11.699 L -2.0024,9.337 L -5.1864,8.0181 L -6.4981,10.046 L -7.0737,10.587 L -10.629,11.846 L -11.846,10.629 L -10.587,7.0737 L -10.046,6.4981 L -8.0181,5.1864 L -9.337,2.0024 L -11.699,2.5088 L -12.488,2.484 L -15.892,0.86102 L -15.892,-0.86102 L -12.488,-2.484 L -11.699,-2.5088 L -9.337,-2.0024 L -8.0181,-5.1864 L -10.046,-6.4981 L -10.587,-7.0737 L -11.846,-10.629 L -10.629,-11.846 L -7.0737,-10.587 L -6.4981,-10.046 L -5.1864,-8.0181 L -2.0024,-9.337 L -2.5088,-11.699 L -2.484,-12.488 L -0.86102,-15.892 L 0.86102,-15.892 L 2.484,-12.488 L 2.5088,-11.699 L 2.0024,-9.337 L 5.1864,-8.0181 L 6.4981,-10.046 L 7.0737,-10.587 L 10.629,-11.846 L 11.846,-10.629 L 10.587,-7.0737 L 10.046,-6.4981 L 8.0181,-5.1864 L 9.337,-2.0024 z "/>
    <g id="Nut">
      <path d="M 0,-6 L 5.1962,-3 L 5.1962,3 L 0,6 L -5.1962,3 L -5.1962,-3 L 0,-6 z " style="opacity:1;fill:#666666;fill-opacity:1;stroke:#000000;stroke-width:1.5;stroke-opacity:1" id="path2734"/>
      <rect width="2" height="12" x="-1" y="-6" style="opacity:1;fill:#333333;fill-opacity:1;stroke:none;stroke-width:1;stroke-opacity:1" id="rect2736"/>
      <path d="M 0,-6 L 5.1962,-3 L 5.1962,3 L 0,6 L -5.1962,3 L -5.1962,-3 L 0,-6 z " style="opacity:1;fill:none;fill-opacity:1;stroke:#000000;stroke-width:1.5;stroke-opacity:1" id="path2738"/>
    </g>
    <path id="HandLarge" style="opacity:1;fill:#800000;fill-opacity:1;stroke:#000000;stroke-width:1;stroke-opacity:1" d="M 0,-82.5 L -2.5,-75 L -4.7188,-8.8125 C -7.8566,-7.1247 -10,-3.8103 -10,0 C -10,3.9979 -7.6431,7.4313 -4.25,9.0312 L -2.5,30 L 2.5,30 L 4.25,9.0312 C 7.6431,7.4313 10,3.9979 10,0 C 10,-3.8103 7.8566,-7.1247 4.7188,-8.8125 L 2.5,-75 L 0,-82.5 z M 0,-2.5 C 1.38,-2.5 2.5,-1.38 2.5,0 C 2.5,1.38 1.38,2.5 0,2.5 C -1.38,2.5 -2.5,1.38 -2.5,0 C -2.5,-1.38 -1.38,-2.5 0,-2.5 z "/>
    <path sodipodi:nodetypes="cccsccccsccccsssc" id="HandSmall" style="opacity:1;fill:#800000;fill-opacity:1;stroke:#000000;stroke-width:1;stroke-opacity:1" d="M 0,-55 L -2.5,-47.5 L -4.7188,-8.8125 C -7.8566,-7.1247 -10,-3.8103 -10,0 C -10,3.9979 -7.6431,7.4313 -4.25,9.0312 L -2.5,30 L 2.5,30 L 4.25,9.0312 C 7.6431,7.4313 10,3.9979 10,0 C 10,-3.8103 7.8566,-7.1247 4.7188,-8.8125 L 2.5,-47.5 L 0,-55 z M 0,-2.5 C 1.38,-2.5 2.5,-1.38 2.5,0 C 2.5,1.38 1.38,2.5 0,2.5 C -1.38,2.5 -2.5,1.38 -2.5,0 C -2.5,-1.38 -1.38,-2.5 0,-2.5 z "/>
    <path sodipodi:type="arc" style="fill:#554400;stroke:none" id="Dot" sodipodi:cx="0" sodipodi:cy="0" sodipodi:rx="2" sodipodi:ry="2" d="M 2 0 A 2 2 0 1 1  -2,2.4492e-16 A 2 2 0 1 1  2 -4.8984e-16 z"/>
    <g id="Dots12">
      <use height="400" width="1200" transform="translate(0,-90)" id="use3784" xlink:href="#Dot" y="0" x="0"/>
      <use height="400" width="1200" transform="translate(45,-77.94)" id="use3786" xlink:href="#Dot" y="0" x="0"/>
      <use height="400" width="1200" transform="translate(77.94,-45)" id="use3788" xlink:href="#Dot" y="0" x="0"/>
      <use height="400" width="1200" transform="translate(90,0)" id="use3790" xlink:href="#Dot" y="0" x="0"/>
      <use height="400" width="1200" transform="translate(77.94,45)" id="use3792" xlink:href="#Dot" y="0" x="0"/>
      <use height="400" width="1200" transform="translate(45,77.94)" id="use3794" xlink:href="#Dot" y="0" x="0"/>
      <use height="400" width="1200" transform="translate(0,90)" id="use3796" xlink:href="#Dot" y="0" x="0"/>
      <use height="400" width="1200" transform="translate(-45,77.94)" id="use3798" xlink:href="#Dot" y="0" x="0"/>
      <use height="400" width="1200" transform="translate(-77.94,45)" id="use3802" xlink:href="#Dot" y="0" x="0"/>
      <use height="400" width="1200" transform="translate(-90,0)" id="use3804" xlink:href="#Dot" y="0" x="0"/>
      <use height="400" width="1200" transform="translate(-77.94,-45)" id="use3806" xlink:href="#Dot" y="0" x="0"/>
      <use height="400" width="1200" transform="translate(-45,-77.94)" id="use3808" xlink:href="#Dot" y="0" x="0"/>
    </g>
    <g id="Dots32">
      <use x="0" y="0" xlink:href="#Dot" id="use3836" transform="translate(0,-90)" width="1200" height="400"/>
      <use x="0" y="0" xlink:href="#Dot" id="use3848" transform="translate(0,90)" width="1200" height="400"/>
      <use height="400" width="1200" transform="matrix(0.9807853,-0.1950903,0.1950903,0.9807853,-17.558129,-88.270675)" id="use3860" xlink:href="#Dot" y="0" x="0"/>
      <use height="400" width="1200" transform="matrix(0.9807853,-0.1950903,0.1950903,0.9807853,17.558129,88.270675)" id="use3862" xlink:href="#Dot" y="0" x="0"/>
      <use x="0" y="0" xlink:href="#Dot" id="use3864" transform="matrix(0.9238796,-0.3826834,0.3826834,0.9238796,-34.441509,-83.149158)" width="1200" height="400"/>
      <use x="0" y="0" xlink:href="#Dot" id="use3866" transform="matrix(0.9238796,-0.3826834,0.3826834,0.9238796,34.441509,83.149158)" width="1200" height="400"/>
      <use height="400" width="1200" transform="matrix(0.8314697,-0.5555702,0.5555702,0.8314697,-50.001321,-74.832265)" id="use3868" xlink:href="#Dot" y="0" x="0"/>
      <use height="400" width="1200" transform="matrix(0.8314697,-0.5555702,0.5555702,0.8314697,50.001321,74.832265)" id="use3870" xlink:href="#Dot" y="0" x="0"/>
      <use x="0" y="0" xlink:href="#Dot" id="use3872" transform="matrix(0.7071069,-0.7071068,0.7071068,0.7071069,-63.63961,-63.63961)" width="1200" height="400"/>
      <use x="0" y="0" xlink:href="#Dot" id="use3874" transform="matrix(0.7071069,-0.7071068,0.7071068,0.7071069,63.63961,63.63961)" width="1200" height="400"/>
      <use height="400" width="1200" transform="matrix(0.5555703,-0.8314697,0.8314697,0.5555703,-74.832265,-50.001321)" id="use3876" xlink:href="#Dot" y="0" x="0"/>
      <use height="400" width="1200" transform="matrix(0.5555703,-0.8314697,0.8314697,0.5555703,74.832265,50.001321)" id="use3878" xlink:href="#Dot" y="0" x="0"/>
      <use x="0" y="0" xlink:href="#Dot" id="use3880" transform="matrix(0.5555703,-0.8314697,0.8314697,0.5555703,-74.832265,-50.001321)" width="1200" height="400"/>
      <use x="0" y="0" xlink:href="#Dot" id="use3882" transform="matrix(0.5555703,-0.8314697,0.8314697,0.5555703,74.832265,50.001321)" width="1200" height="400"/>
      <use height="400" width="1200" transform="matrix(0.5555703,-0.8314697,0.8314697,0.5555703,-74.832265,-50.001321)" id="use3884" xlink:href="#Dot" y="0" x="0"/>
      <use height="400" width="1200" transform="matrix(0.5555703,-0.8314697,0.8314697,0.5555703,74.832265,50.001321)" id="use3886" xlink:href="#Dot" y="0" x="0"/>
      <use x="0" y="0" xlink:href="#Dot" id="use3888" transform="matrix(0.3826835,-0.9238796,0.9238796,0.3826835,-83.149158,-34.441509)" width="1200" height="400"/>
      <use x="0" y="0" xlink:href="#Dot" id="use3890" transform="matrix(0.3826835,-0.9238796,0.9238796,0.3826835,83.149158,34.441509)" width="1200" height="400"/>
      <use height="400" width="1200" transform="matrix(0.1950904,-0.9807854,0.9807854,0.1950904,-88.270675,-17.558129)" id="use3892" xlink:href="#Dot" y="0" x="0"/>
      <use height="400" width="1200" transform="matrix(0.1950904,-0.9807854,0.9807854,0.1950904,88.270675,17.558129)" id="use3894" xlink:href="#Dot" y="0" x="0"/>
      <use x="0" y="0" xlink:href="#Dot" id="use3896" transform="matrix(5.3153261e-8,-1.0000001,1.0000001,5.3153261e-8,-90,-6.4290077e-8)" width="1200" height="400"/>
      <use x="0" y="0" xlink:href="#Dot" id="use3898" transform="matrix(5.3153261e-8,-1.0000001,1.0000001,5.3153261e-8,90,6.4290134e-8)" width="1200" height="400"/>
      <use height="400" width="1200" transform="matrix(-0.1950903,-0.9807854,0.9807854,-0.1950903,-88.270675,17.558129)" id="use3900" xlink:href="#Dot" y="0" x="0"/>
      <use height="400" width="1200" transform="matrix(-0.1950903,-0.9807854,0.9807854,-0.1950903,88.270675,-17.558129)" id="use3902" xlink:href="#Dot" y="0" x="0"/>
      <use x="0" y="0" xlink:href="#Dot" id="use3904" transform="matrix(-0.3826834,-0.9238797,0.9238797,-0.3826834,-83.149158,34.441509)" width="1200" height="400"/>
      <use x="0" y="0" xlink:href="#Dot" id="use3906" transform="matrix(-0.3826834,-0.9238797,0.9238797,-0.3826834,83.149158,-34.441509)" width="1200" height="400"/>
      <use height="400" width="1200" transform="matrix(-0.5555702,-0.8314698,0.8314698,-0.5555702,-74.832265,50.001321)" id="use3908" xlink:href="#Dot" y="0" x="0"/>
      <use height="400" width="1200" transform="matrix(-0.5555702,-0.8314698,0.8314698,-0.5555702,74.832265,-50.001321)" id="use3910" xlink:href="#Dot" y="0" x="0"/>
      <use x="0" y="0" xlink:href="#Dot" id="use3912" transform="matrix(-0.7071068,-0.707107,0.707107,-0.7071068,-63.63961,63.63961)" width="1200" height="400"/>
      <use x="0" y="0" xlink:href="#Dot" id="use3914" transform="matrix(-0.7071068,-0.707107,0.707107,-0.7071068,63.63961,-63.63961)" width="1200" height="400"/>
      <use height="400" width="1200" transform="matrix(-0.8314697,-0.5555704,0.5555704,-0.8314697,-50.001321,74.832265)" id="use3916" xlink:href="#Dot" y="0" x="0"/>
      <use height="400" width="1200" transform="matrix(-0.8314697,-0.5555704,0.5555704,-0.8314697,50.001321,-74.832265)" id="use3918" xlink:href="#Dot" y="0" x="0"/>
      <use x="0" y="0" xlink:href="#Dot" id="use3920" transform="matrix(-0.9238797,-0.3826836,0.3826836,-0.9238797,-34.441509,83.149158)" width="1200" height="400"/>
      <use x="0" y="0" xlink:href="#Dot" id="use3922" transform="matrix(-0.9238797,-0.3826836,0.3826836,-0.9238797,34.441509,-83.149158)" width="1200" height="400"/>
      <use height="400" width="1200" transform="matrix(-0.9807855,-0.1950905,0.1950905,-0.9807855,-17.558129,88.270675)" id="use3924" xlink:href="#Dot" y="0" x="0"/>
      <use height="400" width="1200" transform="matrix(-0.9807855,-0.1950905,0.1950905,-0.9807855,17.558129,-88.270675)" id="use3926" xlink:href="#Dot" y="0" x="0"/>
    </g>
    <g id="Dots7">
      <use height="400" width="1200" transform="translate(0,-60)" id="use3930" xlink:href="#Dot" y="0" x="0"/>
      <use x="0" y="0" xlink:href="#Dot" id="use3934" transform="matrix(0.6234703,-0.781847,0.781847,0.6234703,-46.910822,-37.408218)" width="1200" height="400"/>
      <use height="400" width="1200" transform="matrix(-0.2225695,-0.9749168,0.9749168,-0.2225695,-58.495009,13.354174)" id="use3938" xlink:href="#Dot" y="0" x="0"/>
      <use x="0" y="0" xlink:href="#Dot" id="use3942" transform="matrix(-0.9010013,-0.4338164,0.4338164,-0.9010013,-26.02898,54.06008)" width="1200" height="400"/>
      <use height="400" width="1200" transform="matrix(-0.9009256,0.4339735,-0.4339735,-0.9009256,26.038417,54.055535)" id="use3946" xlink:href="#Dot" y="0" x="0"/>
      <use x="0" y="0" xlink:href="#Dot" id="use3950" transform="matrix(-0.2223995,0.9749556,-0.9749556,-0.2223995,58.497339,13.343962)" width="1200" height="400"/>
      <use height="400" width="1200" transform="matrix(0.6236067,0.7817383,-0.7817383,0.6236067,46.904291,-37.416407)" id="use3954" xlink:href="#Dot" y="0" x="0"/>
    </g>
  </defs>
  <script type="text/ecmascript" id="script2259">

    var angle_seconds   = 0;
    var angle_gear7_5   = 0;
    var angle_minutes   = 0;
    var angle_gear180   = 0;
    var angle_hours     = 0;
    var angle_gear2880  = 0;
    var angle_daynight  = 0;
    var angle_gear5760  = 0;
    var angle_daymonth  = 0; // Day of month
    var angle_gear11520 = 0;
    var angle_weekday   = 0;
    var angle_gear172800= 0;
    var angle_month     = 0;

    // Keep track of old time... so we don't update the display if not necessary.  
    // This is a mechanical clock, so it is correct to move the second hand
    // only once a second! One could add a pendulum and rocker... but that
    // requires too much CPU.
    var old_time = 0;

    // The gear groups
    var seconds;
    var gear7_5;
    var minutes;
    var gear180;
    var hours;
    var gear360;
    var daynight
    var gear5760;
    var date;
    var gear11520;
    var weekday;
    var gear172800;
    var month;

    function Start(evt) {
      seconds         = evt.target.ownerDocument.getElementById("RotSeconds"      );
      gear7_5         = evt.target.ownerDocument.getElementById("RotGear7_5"      );
      minutes         = evt.target.ownerDocument.getElementById("RotMinutes"      );
      gear180         = evt.target.ownerDocument.getElementById("RotGear180"      );
      hours           = evt.target.ownerDocument.getElementById("RotHours"        );
      gear360         = evt.target.ownerDocument.getElementById("RotGear360"      );
      daynight        = evt.target.ownerDocument.getElementById("RotDayNight"     );
      gear5760        = evt.target.ownerDocument.getElementById("RotGear5760"     );
      daymonth        = evt.target.ownerDocument.getElementById("RotDayMonth"     );
      gear11520       = evt.target.ownerDocument.getElementById("RotGear11520"    );
      weekday         = evt.target.ownerDocument.getElementById("RotWeekDay"      );
      gear172800      = evt.target.ownerDocument.getElementById("RotGear172800"   );
      month           = evt.target.ownerDocument.getElementById("RotMonth"        );

      second_hand     = evt.target.ownerDocument.getElementById("RotSecondHand"   );
      minute_hand     = evt.target.ownerDocument.getElementById("RotMinuteHand"   );
      hour_hand       = evt.target.ownerDocument.getElementById("RotHourHand"     );
      daynight_hand   = evt.target.ownerDocument.getElementById("RotDayNightHand" );
      daymonth_hand   = evt.target.ownerDocument.getElementById("RotDayMonthHand" );
      weekday_hand    = evt.target.ownerDocument.getElementById("RotWeekDayHand"  );
      month_hand      = evt.target.ownerDocument.getElementById("RotMonthHand"    );

      Run();
    }

    function Run() {

      // Get computer clock time
      var date  = new Date();
      // var s = date.getSeconds();
      // var m = date.getMinutes();
      var h = date.getHours();    // Get hour so we can check for Summer Time
      var d = date.getDay();      // Week Day, Sunday = 0
      var D = date.getDate();     // Day of month from 1 to 31
      // var M = date.getMonth();    // Month from 0 to 11
      var Y = date.getFullYear();

      var date0 = new Date( Y, 0, 1 ); // Number of milliseconds from 1 January 1970 00:00:00 to start of year
      var milli = date - date0;        // Number of milliseconds since start of year

      // Set start angles... this is a little tricky
      s = Math.floor( milli/1000 );    // Seconds since start of year
      var h2 = Math.floor( (s / 3600) % 24);  // Calculate the hour of the day... not taking into account summer time.
      // alert( 'h=' + h + ' h2=' + h2 );
      if( h != h2 ) {
        s += 3600; // Adjust for summer time
      }

      if( s != old_time ) {
        angle_seconds    =  (s * 6.0                 ) % 360.0;
        angle_gear7_5    = -(s * 6.0 /      7.5      ) % 360.0;
        angle_minutes    =  (s * 6.0 /     60.0      ) % 360.0;
        angle_gear180    = -(s * 6.0 /    180.0      ) % 360.0;
        angle_hours      =  (s * 6.0 /    720.0      ) % 360.0;
        angle_gear360    = -(s * 6.0 /    360.0 + 10 ) % 360.0;
	angle_daynight   =  (s * 6.0 /   1440.0 +  3 ) % 360.0;
        angle_gear5760   = -(s * 6.0 /   5760.0      ) % 360.0;
	angle_daymonth   =  (s * 6.0 /  46080.0      ) % 360.0; // 32 days in month!
        angle_gear11520  = -(s * 6.0 /  11520.0 +  6 ) % 360.0; // Adjustment to align teeth.
        angle_weekday    =  (s * 6.0 /  10080.0 +  6 ) % 360.0; // Adjustment to align teeth.
        angle_gear172800 = -(s * 6.0 / 172800.0 +  1 ) % 360.0;
        angle_month      =  (s * 6.0 / 525600.0      ) % 360.0;

        // Reset day of month to top at start of each month.   
	angle_dm_hand = ( D - 1 + (s % 86400)/86400.0 ) * 360.0/32.0;

        // Set day of week (takes care off offset at beginning of year).
        // Sunday == 0
        angle_wd_hand = ( d + (s % 86400)/86400.0 ) * 360.0/7.0;

        seconds.setAttribute(    "transform", "rotate(" +angle_seconds+   ")");
        gear7_5.setAttribute(    "transform", "rotate(" +angle_gear7_5+   ")");
        minutes.setAttribute(    "transform", "rotate(" +angle_minutes+   ")");
        gear180.setAttribute(    "transform", "rotate(" +angle_gear180+   ")");
        hours.setAttribute(      "transform", "rotate(" +angle_hours+     ")");
        gear360.setAttribute(    "transform", "rotate(" +angle_gear360+   ")");
        daynight.setAttribute(   "transform", "rotate(" +angle_daynight+  ")");
        gear5760.setAttribute(   "transform", "rotate(" +angle_gear5760+  ")");
        daymonth.setAttribute(   "transform", "rotate(" +angle_daymonth+  ")");
        gear11520.setAttribute(  "transform", "rotate(" +angle_gear11520+ ")");
        weekday.setAttribute(    "transform", "rotate(" +angle_weekday+   ")");
        gear172800.setAttribute( "transform", "rotate(" +angle_gear172800+")");
        month.setAttribute(      "transform", "rotate(" +angle_month+     ")");

        second_hand.setAttribute(   "transform", "rotate(" +angle_seconds+  ")");
        minute_hand.setAttribute(   "transform", "rotate(" +angle_minutes+  ")");
        hour_hand.setAttribute(     "transform", "rotate(" +angle_hours+    ")");
        daynight_hand.setAttribute( "transform", "rotate(" +angle_daynight+ ")");
        daymonth_hand.setAttribute( "transform", "rotate(" +angle_dm_hand+  ")");
        weekday_hand.setAttribute(  "transform", "rotate(" +angle_wd_hand+  ")");
        month_hand.setAttribute(    "transform", "rotate(" +angle_month+    ")");

        old_time = s;

      }

      // Repeat every 10th of a second, so the second hand jump is never
      // more than a 10th of a second off.
      setTimeout("Run()", 100)

    }

    window.Run = Run
  </script>
  <g transform="translate(1050,175)" style="fill:#bfbfbf;stroke:#000000" id="Seconds">
    <g id="RotSeconds" title="Seconds: 1 RPM, 30:8 Teeth" transform="rotate(90)">
      <path d="M 1049.9,75 L 1030.2,82.094 L 1029.2,77.188 L 1011.2,88.25 L 1009.3,83.656 L 994.06,98.219 L 991.16,94.125 L 979.34,111.5 L 975.66,108.12 L 967.69,127.59 L 963.38,125.06 L 959.62,145.75 L 954.88,144.16 L 955.5,165.19 L 950.53,164.62 L 955.53,185.03 L 950.56,185.53 L 959.69,204.47 L 954.91,205.97 L 967.78,222.59 L 963.44,225.06 L 979.47,238.66 L 975.72,241.97 L 994.25,251.91 L 991.28,255.94 L 1011.5,261.84 L 1009.4,266.38 L 1030.3,267.94 L 1029.3,272.81 L 1050.1,270 L 1050.1,275 L 1069.8,267.91 L 1070.8,272.81 L 1088.8,261.75 L 1090.7,266.34 L 1105.9,251.78 L 1108.8,255.88 L 1120.7,238.5 L 1124.3,241.88 L 1132.3,222.41 L 1136.6,224.94 L 1140.4,204.25 L 1145.1,205.84 L 1144.5,184.81 L 1149.5,185.38 L 1144.5,164.97 L 1149.4,164.47 L 1140.3,145.53 L 1145.1,144.03 L 1132.2,127.41 L 1136.6,124.94 L 1120.5,111.34 L 1124.3,108.03 L 1105.8,98.094 L 1108.7,94.062 L 1088.5,88.156 L 1090.6,83.625 L 1069.7,82.062 L 1070.7,77.188 L 1049.9,80 L 1049.9,75 z M 1050.3,95 C 1060.9,95.066 1071.3,97.245 1081,101.31 L 1052.8,150.16 C 1050.9,149.95 1049.1,149.95 1047.2,150.16 L 1019,101.25 C 1029.1,96.962 1039.8,94.934 1050.3,95 z M 1001.7,111.25 L 1029.9,160.16 C 1028.8,161.67 1027.8,163.3 1027.1,165 L 970.66,165.03 C 973.3,144.18 984.07,124.56 1001.7,111.25 z M 1098.3,111.25 C 1106.6,117.5 1113.8,125.47 1119.3,135 C 1124.8,144.53 1128.1,154.72 1129.4,165 L 1072.9,165 C 1072.5,164.15 1072.1,163.32 1071.7,162.5 C 1071.2,161.68 1070.6,160.9 1070.1,160.16 L 1098.3,111.25 z M 1129.3,184.97 C 1126.7,205.82 1115.9,225.44 1098.3,238.75 L 1070.1,189.84 C 1071.2,188.33 1072.2,186.7 1072.9,185 L 1129.3,184.97 z M 970.62,185 L 1027.1,185 C 1027.5,185.85 1027.9,186.68 1028.3,187.5 C 1028.8,188.32 1029.4,189.1 1029.9,189.84 L 1001.7,238.75 C 993.4,232.5 986.22,224.53 980.72,215 C 975.22,205.47 971.91,195.28 970.62,185 z M 1047.2,199.84 C 1049.1,200.05 1050.9,200.05 1052.8,199.84 L 1081,248.75 C 1060.7,257.33 1038.3,256.82 1019,248.69 L 1047.2,199.84 z " transform="translate(-1050,-175)" id="GearSeconds"/>
      <use x="0" y="0" xlink:href="#Gear8" id="use2723" width="1200" height="400"/>
    </g>
  </g>
  <g transform="translate(940.12,169.75)" style="fill:#bfbfbf;stroke:#000000" id="Gear7_5">
    <g id="RotGear7_5" title="1/7.5 RPM, 60:8 Teeth" transform="rotate(-156)">
      <use x="0" y="0" xlink:href="#Gear60" id="use2646" width="1200" height="400"/>
      <use x="0" y="0" xlink:href="#Gear8" id="use2720" width="1200" height="400"/>
      <use x="0" y="0" xlink:href="#Nut" id="use2769" width="1200" height="400"/>
    </g>
  </g>
  <g transform="translate(825,175)" style="fill:#bfbfbf;stroke:#000000" id="Minutes">
    <g id="RotMinutes" title="Minutes: 1/60 RPM, 64:20 Teeth" transform="rotate(19.5)">
      <use x="0" y="0" xlink:href="#Gear64" id="use2641" width="1200" height="400"/>
      <use x="0" y="0" xlink:href="#Gear20" id="use2772" width="1200" height="400"/>
      <path sodipodi:type="arc" style="opacity:1;color:#000000;fill:none;fill-opacity:1;stroke:none;stroke-width:1;stroke-opacity:1" id="TextCircle" sodipodi:cx="825" sodipodi:cy="175" sodipodi:rx="95" sodipodi:ry="95" d="M 920 175 A 95 95 0 1 1  730,175 A 95 95 0 1 1  920 175 z" transform="matrix(0,-1,-1,0,175,825)"/>
      <text id="text2399" style="font-size:10px;font-style:normal;font-weight:normal;text-align:start;text-anchor:start;fill:#000000;fill-opacity:1;stroke:none;stroke-width:1px;stroke-linecap:butt;stroke-linejoin:miter;stroke-opacity:1;font-family:Serif" xml:space="preserve" transform="translate(-0.25,-0.25)"><textPath id="textPath2401" startOffset="50%" xlink:href="#TextCircle"><tspan style="text-align:start;text-anchor:start;fill:#000000;fill-opacity:1" id="tspan2403">Tavmjong Bah Clockworks  2007</tspan></textPath></text>
      <text xml:space="preserve" style="font-size:10px;font-style:normal;font-weight:normal;text-align:start;text-anchor:start;fill:#666666;fill-opacity:1;stroke:none;stroke-width:1px;stroke-linecap:butt;stroke-linejoin:miter;stroke-opacity:1;font-family:Serif" id="text2392"><textPath xlink:href="#TextCircle" startOffset="50%" id="textPath2396"><tspan id="tspan2394" style="text-align:start;text-anchor:start;fill:#666666">Tavmjong Bah Clockworks  2007</tspan></textPath></text>
    </g>
  </g>
  <g transform="translate(712,238.38)" style="fill:#bfbfbf;stroke:#000000" id="Gear180">
    <g id="RotGear180" title="1/180 RPM, 60:16 Teeth" transform="rotate(-126.5)">
      <use x="0" y="0" xlink:href="#Gear60" id="use2649" width="1200" height="400"/>
      <use x="0" y="0" xlink:href="#Gear16" id="use2690" width="1200" height="400"/>
      <use x="0" y="0" xlink:href="#Nut" id="use2766" width="1200" height="400"/>
    </g>
  </g>
  <g transform="translate(600,175)" style="fill:#bfbfbf;stroke:#000000" id="Hours">
    <g id="RotHours" title="Hours: 1/720 RPM, 64:8 Teeth" transform="rotate(31.625)">
      <use x="0" y="0" xlink:href="#Gear64" id="use2638" width="1200" height="400"/>
      <use x="0" y="0" xlink:href="#Gear8" id="use2775" width="1200" height="400"/>
    </g>
  </g>
  <g id="Gear360" style="fill:#bfbfbf;stroke:#000000" transform="translate(535.43,315)">
    <g id="RotGear360" title="1/360 RPM, 32:8 Teeth" transform="rotate(-73.25)">
      <use x="0" y="0" xlink:href="#Gear32" id="use2664" width="1200" height="400"/>
      <use x="0" y="0" xlink:href="#Gear8" id="use2729" width="1200" height="400"/>
      <use x="0" y="0" xlink:href="#Nut" id="use2763" width="1200" height="400"/>
    </g>
  </g>
  <g id="Gear5760" style="fill:#bfbfbf;stroke:#000000" transform="translate(487.43,150)">
    <g id="RotGear5760" title="1/5760 RPM, 60:8 Teeth" transform="rotate(-183.953125)">
      <use x="0" y="0" xlink:href="#Gear64" id="use2659" width="1200" height="400"/>
      <use x="0" y="0" xlink:href="#Gear8" id="use2726" width="1200" height="400"/>
      <use x="0" y="0" xlink:href="#Nut" id="use2760" width="1200" height="400"/>
    </g>
  </g>
  <g transform="translate(375,175)" style="fill:#bfbfbf;stroke:#000000" id="DayMonth">
    <g id="RotDayMonth" title="Day of Month: 1/46080 RPM, 64:16 Teeth" transform="rotate(112.994140625)">
      <use x="0" y="0" xlink:href="#Gear64" id="use2634" width="1200" height="400"/>
      <use x="0" y="0" xlink:href="#Gear16" id="use2778" width="1200" height="400"/>
    </g>
  </g>
  <g id="DayNight" style="fill:#bfbfbf;stroke:#000000" transform="translate(600,310)">
    <g id="RotDayNight" title="Day/Night: 1/1440 RPM, 32 Teeth" transform="rotate(18.8125)">
      <use x="0" y="0" xlink:href="#Gear32" id="use2669" width="1200" height="400"/>
    </g>
  </g>
  <g id="Gear11520" style="fill:#bfbfbf;stroke:#000000" transform="translate(422.03,294.52)">
    <g id="RotGear11520" title="1/11520 RPM, 16 Teeth" transform="rotate(-97.9765625)">
      <use x="0" y="0" xlink:href="#Gear16" id="use2687" width="1200" height="400"/>
      <use x="0" y="0" xlink:href="#Nut" id="use2754" width="1200" height="400"/>
    </g>
  </g>
  <g id="Weekday" style="fill:#bfbfbf;stroke:#000000" transform="translate(375,310)">
    <g id="RotWeekDay" title="Day of Week: 1/10080 RPM, 14 Teeth" transform="rotate(111.11607142857065)">
      <use x="0" y="0" xlink:href="#Gear14" id="use2713" width="1200" height="400"/>
    </g>
  </g>
  <g id="Gear172800" style="fill:#bfbfbf;stroke:#000000" transform="translate(282.87,255.45)">
    <g id="RotGear172800" title="1/172800 RPM, 60:24 Teeth" transform="rotate(-151.13177083333335)">
      <use x="0" y="0" xlink:href="#Gear60" id="use2653" width="1200" height="400"/>
      <use x="0" y="0" xlink:href="#Gear24" id="use2674" width="1200" height="400"/>
      <use x="0" y="0" xlink:href="#Nut" id="use2750" width="1200" height="400"/>
    </g>
  </g>
  <g id="Month" style="fill:#bfbfbf;stroke:#000000" transform="translate(150,175)">
    <g id="RotMonth" title="Month: 1/525600 RPM, 73 Teeth" transform="rotate(167.71455479452055)">
<!-- Gear of 73 teeth -->      <path d="M 151.31,55.656 L 150,58.812 L 149,62 L 146.12,62.062 L 145,58.938 L 143.56,55.812 L 141.03,55.969 L 140,59.25 L 139.28,62.5 L 136.44,62.812 L 135.03,59.781 L 133.34,56.812 L 130.84,57.188 L 130.09,60.531 L 129.66,63.844 L 126.84,64.406 L 125.19,61.5 L 123.25,58.656 L 120.78,59.25 L 120.34,62.656 L 120.19,66 L 117.44,66.812 L 115.53,64.062 L 113.34,61.406 L 110.94,62.219 L 110.78,65.625 L 110.94,68.969 L 108.25,70 L 106.12,67.438 L 103.72,64.969 L 101.38,65.969 L 101.53,69.406 L 101.97,72.719 L 99.375,73.969 L 97.031,71.594 L 94.438,69.375 L 92.188,70.562 L 92.625,73.969 L 93.344,77.219 L 90.875,78.688 L 88.344,76.531 L 85.562,74.531 L 83.438,75.906 L 84.156,79.281 L 85.156,82.469 L 82.812,84.156 L 80.094,82.188 L 77.156,80.438 L 75.156,82 L 76.188,85.281 L 77.438,88.375 L 75.25,90.25 L 72.375,88.562 L 69.281,87.062 L 67.438,88.781 L 68.75,91.969 L 70.25,94.938 L 68.25,97 L 65.25,95.531 L 62.031,94.312 L 60.344,96.188 L 61.906,99.25 L 63.656,102.09 L 61.844,104.31 L 58.719,103.12 L 55.406,102.19 L 53.906,104.19 L 55.719,107.12 L 57.719,109.78 L 56.094,112.16 L 52.875,111.22 L 49.5,110.59 L 48.156,112.72 L 50.219,115.47 L 52.438,117.97 L 51.031,120.47 L 47.75,119.81 L 44.344,119.47 L 43.188,121.72 L 45.469,124.28 L 47.906,126.56 L 46.719,129.16 L 43.406,128.81 L 39.969,128.75 L 39,131.09 L 41.5,133.44 L 44.125,135.5 L 43.156,138.22 L 39.812,138.16 L 36.406,138.38 L 35.625,140.78 L 38.344,142.94 L 41.125,144.75 L 40.375,147.53 L 37.062,147.75 L 33.656,148.28 L 33.125,150.75 L 36,152.62 L 38.938,154.22 L 38.438,157.06 L 35.125,157.56 L 31.781,158.38 L 31.469,160.88 L 34.5,162.53 L 37.562,163.84 L 37.312,166.72 L 34.062,167.5 L 30.812,168.59 L 30.688,171.12 L 33.844,172.5 L 37,173.56 L 37,176.44 L 33.844,177.5 L 30.688,178.88 L 30.812,181.41 L 34.062,182.5 L 37.312,183.28 L 37.562,186.16 L 34.5,187.47 L 31.469,189.12 L 31.781,191.62 L 35.125,192.44 L 38.438,192.94 L 38.938,195.78 L 36,197.38 L 33.125,199.25 L 33.656,201.72 L 37.062,202.25 L 40.375,202.47 L 41.125,205.25 L 38.344,207.06 L 35.625,209.22 L 36.406,211.62 L 39.812,211.84 L 43.156,211.78 L 44.125,214.5 L 41.5,216.56 L 39,218.91 L 39.969,221.25 L 43.406,221.19 L 46.719,220.84 L 47.906,223.44 L 45.469,225.72 L 43.188,228.28 L 44.344,230.53 L 47.75,230.19 L 51.031,229.53 L 52.438,232.03 L 50.219,234.53 L 48.156,237.28 L 49.5,239.41 L 52.875,238.78 L 56.094,237.84 L 57.719,240.22 L 55.719,242.88 L 53.906,245.81 L 55.406,247.81 L 58.719,246.88 L 61.844,245.69 L 63.656,247.91 L 61.906,250.75 L 60.344,253.81 L 62.031,255.69 L 65.25,254.47 L 68.25,253 L 70.25,255.06 L 68.75,258.03 L 67.438,261.22 L 69.281,262.94 L 72.375,261.44 L 75.25,259.75 L 77.438,261.62 L 76.188,264.72 L 75.156,268 L 77.156,269.56 L 80.094,267.81 L 82.812,265.84 L 85.156,267.53 L 84.156,270.72 L 83.438,274.09 L 85.562,275.47 L 88.344,273.47 L 90.875,271.31 L 93.344,272.78 L 92.625,276.03 L 92.188,279.44 L 94.438,280.62 L 97.031,278.41 L 99.375,276.03 L 101.97,277.28 L 101.53,280.59 L 101.38,284.03 L 103.72,285.03 L 106.12,282.56 L 108.25,280 L 110.94,281.03 L 110.78,284.38 L 110.94,287.78 L 113.34,288.59 L 115.53,285.94 L 117.44,283.19 L 120.19,284 L 120.34,287.34 L 120.78,290.75 L 123.25,291.34 L 125.19,288.5 L 126.84,285.59 L 129.66,286.16 L 130.09,289.47 L 130.84,292.81 L 133.34,293.19 L 135.03,290.22 L 136.44,287.19 L 139.28,287.5 L 140,290.75 L 141.03,294.03 L 143.56,294.19 L 145,291.06 L 146.12,287.94 L 149,288 L 150,291.19 L 151.31,294.34 L 153.84,294.31 L 155,291.06 L 155.84,287.84 L 158.72,287.66 L 160,290.75 L 161.56,293.81 L 164.06,293.53 L 164.97,290.22 L 165.53,286.94 L 168.38,286.5 L 169.91,289.47 L 171.72,292.38 L 174.22,291.88 L 174.81,288.5 L 175.09,285.19 L 177.88,284.5 L 179.66,287.34 L 181.75,290.06 L 184.16,289.38 L 184.47,285.94 L 184.47,282.62 L 187.19,281.69 L 189.22,284.38 L 191.5,286.91 L 193.88,286 L 193.88,282.56 L 193.59,279.25 L 196.25,278.09 L 198.47,280.59 L 200.97,282.94 L 203.25,281.81 L 202.97,278.41 L 202.41,275.12 L 204.94,273.75 L 207.38,276.03 L 210.06,278.16 L 212.25,276.84 L 211.66,273.47 L 210.81,270.25 L 213.22,268.66 L 215.84,270.72 L 218.72,272.59 L 220.78,271.12 L 219.91,267.81 L 218.78,264.66 L 221.03,262.88 L 223.81,264.72 L 226.84,266.34 L 228.78,264.69 L 227.62,261.44 L 226.22,258.41 L 228.31,256.44 L 231.25,258.03 L 234.41,259.41 L 236.19,257.59 L 234.75,254.47 L 233.12,251.56 L 235.03,249.41 L 238.09,250.75 L 241.38,251.81 L 242.97,249.88 L 241.28,246.88 L 239.41,244.12 L 241.12,241.84 L 244.28,242.88 L 247.62,243.69 L 249.06,241.59 L 247.12,238.78 L 245,236.19 L 246.53,233.75 L 249.78,234.53 L 253.16,235.03 L 254.41,232.84 L 252.25,230.19 L 249.91,227.78 L 251.22,225.25 L 254.53,225.72 L 257.94,225.94 L 259,223.66 L 256.59,221.19 L 254.09,219 L 255.16,216.34 L 258.5,216.56 L 261.94,216.47 L 262.78,214.09 L 260.19,211.84 L 257.47,209.91 L 258.34,207.16 L 261.66,207.06 L 265.09,206.69 L 265.72,204.25 L 262.94,202.25 L 260.09,200.53 L 260.69,197.72 L 264,197.38 L 267.38,196.69 L 267.81,194.19 L 264.88,192.44 L 261.88,190.97 L 262.25,188.12 L 265.5,187.47 L 268.81,186.53 L 269.03,184 L 265.94,182.5 L 262.81,181.28 L 262.94,178.44 L 266.16,177.5 L 269.38,176.25 L 269.38,173.75 L 266.16,172.5 L 262.94,171.56 L 262.81,168.72 L 265.94,167.5 L 269.03,166 L 268.81,163.47 L 265.5,162.53 L 262.25,161.88 L 261.88,159.03 L 264.88,157.56 L 267.81,155.81 L 267.38,153.31 L 264,152.62 L 260.69,152.28 L 260.09,149.47 L 262.94,147.75 L 265.72,145.75 L 265.09,143.31 L 261.66,142.94 L 258.34,142.84 L 257.47,140.09 L 260.19,138.16 L 262.78,135.91 L 261.94,133.53 L 258.5,133.44 L 255.16,133.66 L 254.09,131 L 256.59,128.81 L 259,126.34 L 257.94,124.06 L 254.53,124.28 L 251.22,124.75 L 249.91,122.22 L 252.25,119.81 L 254.41,117.16 L 253.16,114.97 L 249.78,115.47 L 246.53,116.25 L 245,113.81 L 247.12,111.22 L 249.06,108.41 L 247.62,106.31 L 244.28,107.12 L 241.12,108.16 L 239.41,105.88 L 241.28,103.12 L 242.97,100.12 L 241.38,98.188 L 238.09,99.25 L 235.03,100.59 L 233.12,98.438 L 234.75,95.531 L 236.19,92.406 L 234.41,90.594 L 231.25,91.969 L 228.31,93.562 L 226.22,91.594 L 227.62,88.562 L 228.78,85.312 L 226.84,83.656 L 223.81,85.281 L 221.03,87.125 L 218.78,85.344 L 219.91,82.188 L 220.78,78.875 L 218.72,77.406 L 215.84,79.281 L 213.22,81.344 L 210.81,79.75 L 211.66,76.531 L 212.25,73.156 L 210.06,71.844 L 207.38,73.969 L 204.94,76.25 L 202.41,74.875 L 202.97,71.594 L 203.25,68.188 L 200.97,67.062 L 198.47,69.406 L 196.25,71.906 L 193.59,70.75 L 193.88,67.438 L 193.88,64 L 191.5,63.094 L 189.22,65.625 L 187.19,68.312 L 184.47,67.375 L 184.47,64.062 L 184.16,60.625 L 181.75,59.938 L 179.66,62.656 L 177.88,65.5 L 175.09,64.812 L 174.81,61.5 L 174.22,58.125 L 171.72,57.625 L 169.91,60.531 L 168.38,63.5 L 165.53,63.062 L 164.97,59.781 L 164.06,56.469 L 161.56,56.188 L 160,59.25 L 158.72,62.344 L 155.84,62.156 L 155,58.938 L 153.84,55.688 L 151.31,55.656 z M 150,75 C 173.99,75 196.01,83.462 213.25,97.562 L 160.59,150.25 C 154.74,156.1 145.26,156.1 139.41,150.25 L 86.719,97.594 C 103.96,83.477 125.99,75 150,75 z M 227.41,111.72 C 241.52,128.96 250,150.99 250,175 C 250,199.01 241.52,221.04 227.41,238.28 L 174.75,185.59 C 171.82,182.67 170.34,178.84 170.34,175 C 170.34,171.16 171.82,167.33 174.75,164.41 L 227.41,111.72 z M 72.562,111.75 L 125.25,164.41 C 131.1,170.26 131.1,179.74 125.25,185.59 L 72.562,238.25 C 58.462,221.01 50,198.99 50,175 C 50,151.01 58.462,128.99 72.562,111.75 z M 150,195.34 C 153.83,195.34 157.67,196.82 160.59,199.75 L 213.25,252.44 C 196.01,266.54 173.99,275 150,275 C 125.99,275 103.96,266.52 86.719,252.41 L 139.41,199.75 C 142.33,196.82 146.17,195.34 150,195.34 z " transform="translate(-150,-175)" id="path2714"/>
    </g>
  </g>
  <g id="FrontPlate" style="opacity:0.5">
    <use x="0" y="0" xlink:href="#Dots12" id="DotsSecond" width="1200" height="400" transform="translate(1050,175)"/>
    <use x="0" y="0" xlink:href="#Dots12" id="DotsMinute" width="1200" height="400" transform="translate(825,175)"/>
    <use x="0" y="0" xlink:href="#Dots12" id="DotsHour" width="1200" height="400" transform="translate(600,175)"/>
    <use x="0" y="0" xlink:href="#Dots12" id="DotsMonth" transform="translate(150,175)" width="1200" height="400"/>
    <use x="0" y="0" xlink:href="#Dots7" id="DotsWeek" width="1200" height="400" transform="translate(375,310)"/>
    <use x="0" y="0" xlink:href="#Dots32" id="DotsDayofMonth" transform="translate(375,175)" width="1200" height="400"/>
  </g>
  <g transform="translate(1050,175)" id="SecondHand">
    <g id="RotSecondHand" transform="rotate(90)">
      <use x="0" y="0" xlink:href="#HandLarge" id="use2801" width="1200" height="400"/>
    </g>
  </g>
  <g transform="translate(825,175)" id="MinuteHand">
    <g id="RotMinuteHand" transform="rotate(19.5)">
      <use x="0" y="0" xlink:href="#HandLarge" id="use2798" width="1200" height="400"/>
    </g>
  </g>
  <g transform="translate(600,175)" id="HourHand">
    <g id="RotHourHand" transform="rotate(31.625)">
      <use x="0" y="0" xlink:href="#HandLarge" id="use2795" width="1200" height="400"/>
    </g>
  </g>
  <g id="DayNightHand" transform="translate(600,310)">
    <g id="RotDayNightHand" transform="rotate(18.8125)">
      <use x="0" y="0" xlink:href="#HandSmall" id="use2810" width="1200" height="400"/>
    </g>
  </g>
  <g id="DayMonthHand" transform="translate(375,175)">
    <g id="RotDayMonthHand" transform="rotate(214.244140625)">
      <use x="0" y="0" xlink:href="#HandLarge" id="use2792" width="1200" height="400"/>
    </g>
  </g>
  <g transform="translate(375,310)" id="WeekDayHand">
    <g id="RotWeekDayHand" transform="rotate(310.83035714285717)">
      <use x="0" y="0" xlink:href="#HandSmall" id="use2807" width="1200" height="400"/>
    </g>
  </g>
  <g transform="translate(150,175)" id="MonthHand">
    <g id="RotMonthHand" transform="rotate(167.71455479452055)">
      <use x="0" y="0" xlink:href="#HandLarge" id="use2789" width="1200" height="400"/>
    </g>
  </g>
  <text x="1050" y="45" style="font-size:24px;font-style:italic;font-weight:normal;text-align:center;text-anchor:middle;fill:#000000;fill-opacity:1;stroke:none;stroke-width:1px;stroke-linecap:butt;stroke-linejoin:miter;stroke-opacity:1;font-family:Serif" id="text2261" xml:space="preserve"><tspan x="1050" y="45" id="tspan2263">Seconds</tspan></text>
  <text x="825" y="45" style="font-size:24px;font-style:italic;font-weight:normal;text-align:center;text-anchor:middle;fill:#000000;fill-opacity:1;stroke:none;stroke-width:1px;stroke-linecap:butt;stroke-linejoin:miter;stroke-opacity:1;font-family:Serif" id="text2257" xml:space="preserve"><tspan x="825" y="45" id="tspan2259">Minutes</tspan></text>
  <text x="600" y="45" style="font-size:24px;font-style:italic;font-weight:normal;text-align:center;text-anchor:middle;fill:#000000;fill-opacity:1;stroke:none;stroke-width:1px;stroke-linecap:butt;stroke-linejoin:miter;stroke-opacity:1;font-family:Serif" id="text2253" xml:space="preserve"><tspan x="600" y="45" id="tspan2255">Hours</tspan></text>
  <text xml:space="preserve" style="font-size:24px;font-style:italic;font-weight:normal;text-align:center;text-anchor:middle;fill:#000000;fill-opacity:1;stroke:none;stroke-width:1px;stroke-linecap:butt;stroke-linejoin:miter;stroke-opacity:1;font-family:Serif" x="600" y="400" id="text2312"><tspan sodipodi:role="line" id="tspan2314" x="600" y="400">Day/Night</tspan></text>
  <text xml:space="preserve" style="font-size:24px;font-style:italic;font-weight:normal;text-align:center;text-anchor:middle;fill:#000000;fill-opacity:1;stroke:none;stroke-width:1px;stroke-linecap:butt;stroke-linejoin:miter;stroke-opacity:1;font-family:Serif" x="375" y="400" id="text2316"><tspan sodipodi:role="line" id="tspan2318" x="375" y="400">Day of Week</tspan></text>
  <text xml:space="preserve" style="font-size:24px;font-style:italic;font-weight:normal;text-align:center;text-anchor:middle;fill:#000000;fill-opacity:1;stroke:none;stroke-width:1px;stroke-linecap:butt;stroke-linejoin:miter;stroke-opacity:1;font-family:Serif" x="375" y="45" id="text2320"><tspan sodipodi:role="line" id="tspan2322" x="375" y="45">Day of Month</tspan></text>
  <text xml:space="preserve" style="font-size:24px;font-style:italic;font-weight:normal;text-align:center;text-anchor:middle;fill:#000000;fill-opacity:1;stroke:none;stroke-width:1px;stroke-linecap:butt;stroke-linejoin:miter;stroke-opacity:1;font-family:Serif" x="150" y="45" id="text2324"><tspan sodipodi:role="line" id="tspan2326" x="150" y="45">Month</tspan></text>
  <rect width="1198" height="418" x="1" y="1" style="opacity:1;fill:none;fill-opacity:1;stroke:#999999;stroke-width:2;stroke-opacity:1" id="rect3251"/>
  <a id="a3103" xlink:href="http://tavmjong.free.fr/INKSCAPE/" xlink:title="Tavmjong Bah Website">
    <text xml:space="preserve" style="font-size:12px;text-align:center;text-anchor:middle;stroke:none;font-family:Serif" x="1032" y="380" id="text11233"><tspan sodipodi:role="line" id="tspan11235" x="1032" y="380">Copyright 2007 Tavmjong Bah</tspan><tspan sodipodi:role="line" x="1032" y="395" id="tspan11237">http://tavmjong.free.fr/</tspan></text>
  </a>
</svg>